<?xml version="1.0" encoding="UTF-8"?>
<svg width="20px" height="20px" viewBox="0 0 20 20" version="1.1" xmlns="http://www.w3.org/2000/svg" xmlns:xlink="http://www.w3.org/1999/xlink">
    <title>7.Icon/suggested/4.close</title>
    <g id="7.Icon/suggested/4.close" stroke="none" stroke-width="1" fill="none" fill-rule="evenodd">
        <path d="M2.93305826,2.93305826 C3.17713594,2.68898058 3.57286406,2.68898058 3.81694174,2.93305826 L3.81694174,2.93305826 L10.004,9.12 L16.1913104,2.93305826 C16.4353881,2.68898058 16.8311162,2.68898058 17.0751939,2.93305826 C17.3192716,3.17713594 17.3192716,3.57286406 17.0751939,3.81694174 L10.887,10.004 L17.0751939,16.1913104 C17.2921518,16.4082683 17.3162583,16.7450489 17.1475132,16.988634 L17.0751939,17.0751939 C16.8311162,17.3192716 16.4353881,17.3192716 16.1913104,17.0751939 L16.1913104,17.0751939 L10.004,10.887 L3.81694174,17.0751939 C3.57286406,17.3192716 3.17713594,17.3192716 2.93305826,17.0751939 C2.68898058,16.8311162 2.68898058,16.4353881 2.93305826,16.1913104 L9.12,10.004 L2.93305826,3.81694174 C2.71610032,3.5999838 2.69199388,3.2632033 2.86073895,3.01961812 Z" id="形状结合" fill="#999AAA"></path>
    </g>
</svg>