<?xml version="1.0" encoding="UTF-8"?>
<svg width="20px" height="20px" viewBox="0 0 20 20" version="1.1" xmlns="http://www.w3.org/2000/svg" xmlns:xlink="http://www.w3.org/1999/xlink">
    <title>7.Icon/interface/搜索</title>
    <g id="7.Icon/interface/搜索" stroke="none" stroke-width="1" fill="none" fill-rule="evenodd">
        <g id="搜索" transform="translate(2.000000, 2.000000)" fill="#999AAA" fill-rule="nonzero">
            <path d="M7.16268021,-3.67430175e-06 C7.31379148,0.015111127 7.46490244,0.0284444081 7.61601355,0.045333334 C8.69918664,0.160309869 9.73726597,0.540735468 10.6382358,1.15289087 C12.0882652,2.09936049 13.109957,3.57606533 13.4844575,5.26667668 C13.9910253,7.31956989 13.4991197,9.49113492 12.157345,11.1253556 C12.1511228,11.1333556 12.1449006,11.1422445 12.1084561,11.1813556 C12.1402503,11.1937468 12.1701666,11.2104999 12.1973451,11.2311335 C13.3914199,12.422838 14.5849104,13.6148394 15.7777868,14.8071377 C15.9714042,14.9692738 16.046448,15.2331616 15.9671198,15.4729166 C15.8935654,15.731498 15.6820773,15.9275623 15.4186754,15.9813608 C15.2063564,16.0356657 14.9814718,15.9671034 14.8355638,15.8035825 C13.6367484,14.601803 12.4367485,13.4012047 11.2355596,12.2017971 C11.2130739,12.1753979 11.192854,12.1471495 11.1751151,12.1173526 C11.0560039,12.2062416 10.9582258,12.2844638 10.8568928,12.358242 C9.94162636,13.0302989 8.87154699,13.4604728 7.74578005,13.6089105 C4.31565125,14.0666032 1.08353811,11.8920178 0.2150996,8.54223267 C0.105613109,8.11736359 0.0389103753,7.68260527 0.0159884737,7.2444532 C0.0131489534,7.21460503 0.00869801073,7.18493219 0.00265515994,7.15556434 L0.00265515994,6.50223077 L0.0168773952,6.41334176 C0.0684330802,6.04978508 0.0915442009,5.67911903 0.175099454,5.3226733 C0.572024888,3.51273382 1.69746057,1.94645075 3.28621242,0.99288714 C4.12781986,0.471511406 5.07660534,0.147553216 6.06132523,0.0453296597 L6.5057695,-3.67430175e-06 L7.16268021,-3.67430175e-06 Z M1.36889204,6.83733608 L1.36889204,6.83711335 C1.37122367,9.85675749 3.82101989,12.302776 6.84067966,12.3004495 C9.8603238,12.2981162 12.3063423,9.84831998 12.3040158,6.82866021 C12.3016836,3.8104067 9.85405817,1.36495073 6.83578903,1.36532573 L6.835789,1.36532573 C3.81564486,1.36630694 1.36812639,3.81540671 1.36911076,6.83555084 C1.36911096,6.83614393 1.36911125,6.83673701 1.36911163,6.83733008 L1.36889204,6.83733608 Z" id="形状"></path>
        </g>
    </g>
</svg>