<?xml version="1.0" encoding="UTF-8"?>
<svg width="24px" height="22px" viewBox="0 0 24 22" version="1.1" xmlns="http://www.w3.org/2000/svg" xmlns:xlink="http://www.w3.org/1999/xlink">
    <title>ic_公共图标_设置备份 5</title>
    <g id="2020/11/16新logo替换" stroke="none" stroke-width="1" fill="none" fill-rule="evenodd">
        <g id="插件快捷搜索" transform="translate(-1239.000000, -164.000000)" stroke="#999AAA" stroke-width="1.5">
            <g id="编组-22" transform="translate(87.000000, 145.000000)">
                <g id="ic_公共图标_设置备份-5" transform="translate(1152.000000, 18.000000)">
                    <path d="M11.9927858,1.20688741 C12.3812477,1.20688741 12.7697096,1.30736835 13.1177858,1.50833025 L13.1177858,1.50833025 L20.5100906,5.77627944 C21.2062431,6.17820323 21.6350906,6.92098902 21.6350906,7.7248366 L21.6350906,7.7248366 L21.6350906,16.260735 C21.6350906,17.0645826 21.2062431,17.8073684 20.5100906,18.2092921 L20.5100906,18.2092921 L13.1177858,22.4772413 C12.7697096,22.6782032 12.3812477,22.7786842 11.9927858,22.7786842 C11.6043239,22.7786842 11.215862,22.6782032 10.8677858,22.4772413 L10.8677858,22.4772413 L3.47548095,18.2092921 C3.12740474,18.0083302 2.84615474,17.7221529 2.65192379,17.385735 C2.45769284,17.0493171 2.35048095,16.6626588 2.35048095,16.260735 L2.35048095,16.260735 L2.35048095,7.7248366 C2.35048095,7.32291281 2.45769284,6.93625447 2.65192379,6.5998366 C2.84615474,6.26341873 3.12740474,5.97724134 3.47548095,5.77627944 L3.47548095,5.77627944 L10.8677858,1.50833025 C11.215862,1.30736835 11.6043239,1.20688741 11.9927858,1.20688741 Z" id="多边形" transform="translate(11.992786, 11.992786) rotate(-330.000000) translate(-11.992786, -11.992786) "></path>
                    <circle id="椭圆形" cx="12" cy="12" r="3.75"></circle>
                </g>
            </g>
        </g>
    </g>
</svg>
