<?xml version="1.0" encoding="UTF-8"?>
<svg width="20px" height="20px" viewBox="0 0 20 20" version="1.1" xmlns="http://www.w3.org/2000/svg" xmlns:xlink="http://www.w3.org/1999/xlink">
    <title>7.Icon/suggested/标签</title>
    <g id="7.Icon/suggested/标签" stroke="none" stroke-width="1" fill="none" fill-rule="evenodd">
        <g id="书签" transform="translate(2.000000, 2.000000)" fill-rule="nonzero">
            <path d="M5.39186474,5.39239757 C4.82400283,5.9602641 3.90333041,5.96007482 3.33527921,5.39204002 C2.76727008,4.82402626 2.76693356,3.90322015 3.33483754,3.33533258 C3.90328835,2.76689818 4.82412902,2.7671716 5.39213816,3.33518536 C5.9601473,3.90324119 5.96033658,4.8239211 5.39186474,5.39239757 Z" id="路径" fill="#999AAA"></path>
            <path d="M9.20066219,16 C8.86054235,16 8.54113,15.8684131 8.30113169,15.6292485 L0.723275709,8.05005434 C0.311152523,7.63873446 0,6.88808339 0,6.30381692 L0,1.2711892 C0,0.570216123 0.570179327,0 1.27112647,0 L6.30342943,0 C6.87692813,0 7.64405043,0.317811775 8.04955417,0.723322385 L15.6282207,8.30247799 C16.1239264,8.79821572 16.1239264,9.60429616 15.6282207,10.1000339 L10.0993628,15.6292099 C9.85938383,15.8683938 9.53995218,16 9.20066219,16 Z" id="形状" stroke="#999AAA" stroke-width="1.25"></path>
        </g>
    </g>
</svg>