<?xml version="1.0" encoding="UTF-8"?>
<svg width="20px" height="20px" viewBox="0 0 20 20" version="1.1" xmlns="http://www.w3.org/2000/svg" xmlns:xlink="http://www.w3.org/1999/xlink">
    <title>7.Icon/interface/计算</title>
    <g id="7.Icon/interface/计算" stroke="none" stroke-width="1" fill="none" fill-rule="evenodd">
        <rect id="矩形" stroke="#999AAA" stroke-width="1.25" x="3.125" y="1.875" width="13.75" height="16.25" rx="2.5"></rect>
        <g id="编组" transform="translate(5.000000, 5.000000)" fill="#999AAA" fill-rule="nonzero">
            <path d="M0.524959756,2 L3.97504024,2 C4.3250129,2 4.5,2.17204626 4.5,2.51613879 C4.5,2.86022073 4.3250129,3.03226245 3.97504024,3.03226245 L0.524959756,3.03226245 C0.174987098,3.03226245 4.4408921e-16,2.86022073 4.4408921e-16,2.51613879 C4.4408921e-16,2.17204626 0.174987098,2 0.524959756,2 Z" id="路径"></path>
            <path d="M5.02495976,6.90322776 L8.47504024,6.90322776 C8.8250129,6.90322776 9,7.07526948 9,7.41935142 C9,7.76344395 8.8250129,7.93549021 8.47504024,7.93549021 L5.02495976,7.93549021 C4.6749871,7.93549021 4.5,7.76344395 4.5,7.41935142 C4.5,7.07526948 4.6749871,6.90322776 5.02495976,6.90322776 Z" id="路径"></path>
            <path d="M5.02495976,8.96773755 L8.47504024,8.96773755 C8.8250129,8.96773755 9,9.13978381 9,9.48387633 C9,9.82795827 8.8250129,10 8.47504024,10 L5.02495976,10 C4.6749871,10 4.5,9.82795827 4.5,9.48387633 C4.5,9.13978381 4.6749871,8.96773755 5.02495976,8.96773755 Z" id="路径"></path>
            <path d="M2.54013976,0.52766401 L2.54013976,3.99962023 C2.54013976,4.35138542 2.36804204,4.52726879 2.02384811,4.52726879 C1.67964359,4.52726879 1.50754133,4.35138542 1.50754133,3.99962023 L1.50754133,0.52766401 C1.50754133,0.175888003 1.67964359,-2.93098879e-14 2.02384811,-2.93098879e-14 C2.36804204,-2.93098879e-14 2.54013976,0.175888003 2.54013976,0.52766401 Z" id="路径"></path>
            <path d="M7.08729685,2.03259009 L1.18253155,8.06722741 C0.939156149,8.31596718 0.939156149,8.5647054 1.18253155,8.81344517 C1.42591755,9.06218494 1.66930203,9.06218494 1.91268802,8.81344517 L7.81746845,2.77880785 C8.06084385,2.53006808 8.06084385,2.28132986 7.81746845,2.03259009 C7.57408245,1.78385032 7.33069797,1.78385032 7.08731198,2.03259009 L7.08729685,2.03259009 Z" id="路径"></path>
        </g>
    </g>
</svg>