<?xml version="1.0" encoding="UTF-8"?>
<svg width="20px" height="20px" viewBox="0 0 20 20" version="1.1" xmlns="http://www.w3.org/2000/svg" xmlns:xlink="http://www.w3.org/1999/xlink">
    <title>7.Icon/suggested/历史记录</title>
    <g id="7.Icon/suggested/历史记录" stroke="none" stroke-width="1" fill="none" fill-rule="evenodd">
        <g id="编组" transform="translate(1.250000, 1.250000)" fill="#999AAA" fill-rule="nonzero">
            <path d="M8.75,0 C13.5824916,0 17.5,3.91750844 17.5,8.75 C17.5,13.5824916 13.5824916,17.5 8.75,17.5 C3.91750844,17.5 0,13.5824916 0,8.75 C0,3.91750844 3.91750844,0 8.75,0 Z M8.75,1.25 C4.60786438,1.25 1.25,4.60786438 1.25,8.75 C1.25,12.8921356 4.60786438,16.25 8.75,16.25 C12.8921356,16.25 16.25,12.8921356 16.25,8.75 C16.25,4.60786438 12.8921356,1.25 8.75,1.25 Z M8.12745152,3.9375 C8.47262949,3.9375 8.75245152,4.21732203 8.75245152,4.5625 L8.752,8.982 L11.8275623,11.2169799 C12.1068171,11.4198705 12.1687226,11.8107265 11.9658321,12.0899814 C11.7629416,12.3692362 11.3720856,12.4311417 11.0928307,12.2282512 L7.84828554,9.87184132 C7.69580085,9.7955886 7.57884963,9.65881708 7.52891341,9.49300826 C7.50130908,9.40610501 7.4921925,9.31805625 7.50149784,9.23099101 L7.50245152,4.5625 C7.50245152,4.21732203 7.78227355,3.9375 8.12745152,3.9375 Z" id="形状结合"></path>
        </g>
    </g>
</svg>