<?xml version="1.0" encoding="UTF-8"?>
<svg width="20px" height="20px" viewBox="0 0 20 20" version="1.1" xmlns="http://www.w3.org/2000/svg" xmlns:xlink="http://www.w3.org/1999/xlink">
    <title>7.Icon/suggested/csdn备份</title>
    <g id="7.Icon/suggested/csdn备份" stroke="none" stroke-width="1" fill="none" fill-rule="evenodd">
        <path d="M13.6194286,11.7729303 C13.5254208,11.6887477 13.3967435,11.6422588 13.2724,11.6447717 C13.1447228,11.6466564 13.0290466,11.6969147 12.9470398,11.7851808 C12.2113125,12.5783191 10.9295402,12.6640723 10.4124976,12.6640723 C9.45308523,12.6640723 8.71902474,12.434769 8.23065116,11.9833868 C7.76661292,11.554621 7.52325953,10.9226232 7.50725822,10.1056122 C7.46992181,8.21150356 8.60834895,6.25268742 10.5775112,6.25268742 C11.517922,6.25268742 12.2483156,6.88122993 12.5183378,7.15136814 C12.6123456,7.24528829 12.7420229,7.29931593 12.8753672,7.29994416 C13.0090449,7.3030853 13.1327218,7.24717297 13.2163953,7.15388106 L13.2930683,7.06844199 C13.4504146,6.89410861 13.5210871,6.66857462 13.4927514,6.43393131 C13.4637491,6.19708921 13.3377387,5.98097864 13.1380556,5.82486388 C12.6553491,5.44824096 11.8352815,5 10.6685187,5 C9.4567522,5 8.25965355,5.52488482 7.38424808,6.44147005 C6.46450562,7.40423007 5.9731318,8.71471451 6.0011341,10.1316837 C6.02346928,11.268777 6.41916855,12.2243124 7.14622846,12.8962027 C7.92729283,13.6183512 9.07138711,14 10.4555012,14 C12.0793016,14 13.0853845,13.5467332 13.6440973,13.1669691 C13.8604484,13.0202778 13.989459,12.7881474 13.9994599,12.531202 C14.008794,12.2730001 13.8967847,12.0201382 13.6917678,11.8373237 L13.6194286,11.7729303 Z" id="Fill-1" fill="#999AAA"></path>
        <circle id="椭圆形" stroke="#999AAA" stroke-width="1.25" fill-rule="nonzero" cx="10" cy="10" r="8.125"></circle>
    </g>
</svg>