<?xml version="1.0" encoding="UTF-8"?>
<svg width="20px" height="20px" viewBox="0 0 20 20" version="1.1" xmlns="http://www.w3.org/2000/svg" xmlns:xlink="http://www.w3.org/1999/xlink">
    <title>7.Icon/interface/文档</title>
    <defs>
        <path d="M12.4994293,1.85634965 L12.4994293,5.73291062 C12.4994293,6.42326656 13.0590734,6.98291062 13.7494293,6.98291062 L17.5110798,6.98291062 L17.5110798,6.98291062" id="path-1"></path>
    </defs>
    <g id="7.Icon/interface/文档" stroke="none" stroke-width="1" fill="none" fill-rule="evenodd">
        <path d="M12.4695093,1.875 L17.2832055,5.82647643 C17.420858,5.94520229 17.5,6.11797554 17.5,6.2997557 L17.5,6.2997557 L17.5,16.25 C17.5,16.767767 17.2901335,17.236517 16.9508252,17.5758252 C16.611517,17.9151335 16.142767,18.125 15.625,18.125 L15.625,18.125 L4.375,18.125 C3.85723305,18.125 3.38848305,17.9151335 3.04917479,17.5758252 C2.70986652,17.236517 2.5,16.767767 2.5,16.25 L2.5,16.25 L2.5,3.75 C2.5,3.23223305 2.70986652,2.76348305 3.04917479,2.42417479 C3.38848305,2.08486652 3.85723305,1.875 4.375,1.875 L4.375,1.875 L12.4695093,1.875 Z" id="形状结合" stroke="#999AAA" stroke-width="1.25"></path>
        <mask id="mask-2" fill="white">
            <use xlink:href="#path-1"></use>
        </mask>
        <use id="路径-13" stroke="#999AAA" stroke-width="1.25" stroke-linejoin="round" xlink:href="#path-1"></use>
        <path d="M6.43326179,9.90322776 L12.5667382,9.90322776 C13.1889118,9.90322776 13.5,10.1115586 13.5,10.5282186 C13.5,10.9448914 13.1889118,11.1532278 12.5667382,11.1532278 L6.43326179,11.1532278 C5.81108817,11.1532278 5.5,10.9448914 5.5,10.5282186 C5.5,10.1115586 5.81108817,9.90322776 6.43326179,9.90322776 Z" id="路径" fill="#999AAA" fill-rule="nonzero"></path>
        <path d="M6.02495976,12.9677375 L9.47504024,12.9677375 C9.8250129,12.9677375 10,13.1760739 10,13.5927467 C10,14.0094067 9.8250129,14.2177375 9.47504024,14.2177375 L6.02495976,14.2177375 C5.6749871,14.2177375 5.5,14.0094067 5.5,13.5927467 C5.5,13.1760739 5.6749871,12.9677375 6.02495976,12.9677375 Z" id="路径" fill="#999AAA" fill-rule="nonzero"></path>
    </g>
</svg>