<?xml version="1.0" encoding="UTF-8"?>
<svg width="20px" height="20px" viewBox="0 0 20 20" version="1.1" xmlns="http://www.w3.org/2000/svg" xmlns:xlink="http://www.w3.org/1999/xlink">
    <title>7.Icon/日期</title>
    <g id="7.Icon/日期" stroke="none" stroke-width="1" fill="none" fill-rule="evenodd">
        <rect id="矩形" stroke="#999AAA" stroke-width="1.25" x="2.1875" y="3.4375" width="15.625" height="14.375" rx="2.5"></rect>
        <path d="M18.125,7.5 L18.125,8.75 L1.875,8.75 L1.875,7.5 L18.125,7.5 Z M6.25,1.25 C6.59517797,1.25 6.875,1.52982203 6.875,1.875 L6.875,5.625 C6.875,5.97017797 6.59517797,6.25 6.25,6.25 C5.90482203,6.25 5.625,5.97017797 5.625,5.625 L5.625,1.875 C5.625,1.52982203 5.90482203,1.25 6.25,1.25 Z M13.75,1.25 C14.095178,1.25 14.375,1.52982203 14.375,1.875 L14.375,5.625 C14.375,5.97017797 14.095178,6.25 13.75,6.25 C13.404822,6.25 13.125,5.97017797 13.125,5.625 L13.125,1.875 C13.125,1.52982203 13.404822,1.25 13.75,1.25 Z" id="形状结合" fill="#999AAA"></path>
        <rect id="矩形" fill="#999AAA" x="9.375" y="10.625" width="1.25" height="5" rx="0.625"></rect>
    </g>
</svg>