<?xml version="1.0" encoding="UTF-8"?>
<svg width="16px" height="16px" viewBox="0 0 16 16" version="1.1" xmlns="http://www.w3.org/2000/svg" xmlns:xlink="http://www.w3.org/1999/xlink">
    <title>7.Icon原数据</title>
    <g id="7.Icon原数据" stroke="none" stroke-width="1" fill="none" fill-rule="evenodd">
        <path d="M7.94285714,3 C9.07520212,3 10.1182138,3.38736861 10.9500245,4.03824612 C11.8024251,4.70523483 12.4334388,5.64848694 12.7125871,6.73553943 C13.7918717,7.2306031 14.3939189,7.60203088 14.8225737,8.1242748 C15.2458971,8.64002339 15.5,9.30316117 15.5,10.0263158 C15.5,10.8186838 15.1948686,11.5389967 14.6964952,12.0724496 C14.200409,12.6034542 13.5127489,12.9493761 12.7451843,12.9948679 L12.7451843,12.9948679 L3.42857143,13 C2.62060853,13 1.88943967,12.6676896 1.36006192,12.1313464 C0.828334033,11.5926221 0.5,10.8482313 0.5,10.0263158 C0.5,9.32238589 0.740757959,8.67532689 1.14399112,8.16563447 C1.55359739,7.64788636 2.13068435,7.27155392 2.79257792,7.12284076 C3.44328877,5.66463221 4.07362122,4.71603742 4.92714262,4.04505083 C5.76035089,3.39003319 6.8066297,3 7.94285714,3 Z" id="形状结合" stroke="#555666"></path>
    </g>
</svg>