<?xml version="1.0" encoding="UTF-8"?>
<svg width="17px" height="16px" viewBox="0 0 17 16" version="1.1" xmlns="http://www.w3.org/2000/svg" xmlns:xlink="http://www.w3.org/1999/xlink">
    <title>颜色</title>
    <g id="2020/12/16日插件后台设置导航" stroke="none" stroke-width="1" fill="none" fill-rule="evenodd">
        <g id="2020/12/16插件后台设置页" transform="translate(-128.000000, -214.000000)" fill="#555666" fill-rule="nonzero">
            <g id="ic_公共图标_饼状图备份-6" transform="translate(128.000000, 214.000000)">
                <g id="压缩" transform="translate(1.000000, 1.000000)">
                    <path d="M13.2524162,6.03750784 L0.747601684,6.03750784 C0.478101371,6.03750784 0.270201129,5.82190759 0.270201129,5.56010728 C0.270201129,5.29830698 0.48580138,5.08270673 0.747601684,5.08270673 L13.2601162,5.08270673 C13.5296166,5.08270673 13.7375168,5.29830698 13.7375168,5.56010728 C13.7375168,5.82190759 13.5219165,6.03750784 13.2524162,6.03750784 Z M13.2524162,8.9250112 L0.747601684,8.9250112 C0.478101371,8.9250112 0.270201129,8.70941095 0.270201129,8.44761064 C0.270201129,8.18581034 0.48580138,7.97021009 0.747601684,7.97021009 L13.2601162,7.97021009 C13.5296166,7.97021009 13.7375168,8.18581034 13.7375168,8.44761064 C13.7375168,8.70941095 13.5219165,8.9250112 13.2524162,8.9250112 Z M7.00000896,4.59760616 C6.86910881,4.59760616 6.75360867,4.5437061 6.66120857,4.459006 L4.73620633,2.53400376 C4.55140611,2.34150354 4.55910612,2.04120319 4.74390633,1.85640297 C4.92870655,1.67160276 5.2290069,1.67160276 5.41380711,1.85640297 L7.00000896,3.43490481 L8.58621081,1.84100296 C8.77101102,1.64850273 9.07901138,1.64850273 9.26381159,1.83330295 C9.44861181,2.01810316 9.45631182,2.32610352 9.2715116,2.51090374 L9.26381159,2.51860375 L7.33880935,4.44360599 C7.24640925,4.5437061 7.1232091,4.59760616 7.00000896,4.59760616 Z" id="形状"></path>
                    <path d="M7.00000896,4.59760616 C6.73050865,4.59760616 6.5226084,4.38200591 6.5226084,4.12020561 L6.5226084,0.747601684 C6.5226084,0.478101371 6.73820866,0.270201129 7.00770897,0.270201129 C7.26950927,0.270201129 7.48510952,0.48580138 7.48510952,0.747601684 L7.48510952,4.12020561 C7.47740952,4.38200591 7.26180926,4.59760616 7.00000896,4.59760616 Z M5.07500672,12.2976151 C4.80550641,12.2976151 4.58990616,12.0820149 4.58990616,11.8202146 C4.58990616,11.6893144 4.64380622,11.5738143 4.72850632,11.4814142 L6.65350856,9.55641193 C6.83830877,9.37161172 7.14630913,9.37161172 7.33110935,9.55641193 L9.25611159,11.4814142 C9.4409118,11.6739144 9.43321179,11.9742147 9.24841158,12.159015 C9.06361136,12.3438152 8.76331101,12.3438152 8.5785108,12.159015 L7.00000896,10.5651131 L5.41380711,12.159015 C5.32140701,12.2437151 5.20590687,12.2976151 5.07500672,12.2976151 L5.07500672,12.2976151 Z" id="形状"></path>
                    <path d="M7.00000896,13.7375168 C6.73050865,13.7375168 6.5226084,13.5219165 6.5226084,13.2601162 L6.5226084,9.88751232 C6.5226084,9.61801201 6.73820866,9.41011176 7.00000896,9.41011176 C7.26950927,9.41011176 7.47740952,9.62571202 7.47740952,9.88751232 L7.47740952,13.2601162 C7.48510952,13.5219165 7.26950927,13.7375168 7.00000896,13.7375168 Z" id="路径"></path>
                </g>
            </g>
        </g>
    </g>
</svg>