<?xml version="1.0" encoding="UTF-8"?>
<svg width="16px" height="16px" viewBox="0 0 16 16" version="1.1" xmlns="http://www.w3.org/2000/svg" xmlns:xlink="http://www.w3.org/1999/xlink">
    <title>引用备份</title>
    <g id="引用备份" stroke="none" stroke-width="1" fill="none" fill-rule="evenodd">
        <g id="引用">
            <rect id="Rectangle-4" x="1.33333333" y="1.33333333" width="13.3333333" height="13.3333333"></rect>
            <path d="M13.0001111,4.11111111 C13.0001111,4.11111111 9.36066667,6.35638889 11.8748333,7.73388889 L11.8748333,7.73388889 C12.5456667,8.11666667 13.0001111,8.83805556 13.0001111,9.66666667 C13.0001111,10.8938889 12.0051111,11.8888889 10.7778889,11.8888889 C9.55066667,11.8888889 8.55566667,10.8938889 8.55566667,9.66666667 L8.55566667,9.66666667 L8.55595111,9.64071111 C8.56277778,9.23111111 8.73344444,4.11111111 13.0001111,4.11111111 Z M7.44444444,4.11113889 C7.44444444,4.11113889 3.80527778,6.35641667 6.31916667,7.73391667 L6.31916667,7.73391667 C6.99,8.11669444 7.44444444,8.83808333 7.44444444,9.66669444 C7.44444444,10.8939167 6.44944444,11.8889167 5.22222222,11.8889167 C3.995,11.8889167 3,10.8939167 3,9.66669444 L3,9.66669444 L3.00096,9.60909444 C3.016,9.02002778 3.26666667,4.11113889 7.44444444,4.11113889 Z" id="Combined-Shape" fill="#222226"></path>
        </g>
    </g>
</svg>