<?xml version="1.0" encoding="UTF-8"?>
<svg width="16px" height="16px" viewBox="0 0 16 16" version="1.1" xmlns="http://www.w3.org/2000/svg" xmlns:xlink="http://www.w3.org/1999/xlink">
    <title>zi ti备份</title>
    <g id="zi-ti备份" stroke="none" stroke-width="1" fill="none" fill-rule="evenodd">
        <g id="颜色" fill="#222226" fill-rule="nonzero" opacity="0">
            <rect id="矩形" x="1.33333333" y="1.33333333" width="13.3333333" height="13.3333333"></rect>
        </g>
        <g id="编组" transform="translate(2.000000, 2.666667)" fill="#222226" fill-rule="nonzero">
            <path d="M7.97497394,9.83333334 L5.30552659,0.5 C5.2387904,0.2 4.97184568,0 4.67153285,0 L3.33680917,0 C3.03649634,0 2.76955161,0.2 2.70281543,0.5 L0.0333680865,9.83333334 C0,9.86666667 0,9.93333334 0,10 C0,10.3666667 0.300312826,10.6666667 0.66736184,10.6666667 C0.967674666,10.6666667 1.23461941,10.4666667 1.30135558,10.1666667 L2.30239833,6.66666667 L5.6725756,6.66666667 L6.67361836,10.1666667 C6.74035455,10.4333333 7.00729927,10.6666667 7.30761209,10.6666667 C7.67466111,10.6666667 7.97497394,10.3666667 7.97497394,10 C8.00834202,9.93333332 8.00834202,9.86666667 7.97497394,9.83333334 L7.97497394,9.83333334 Z M2.66666667,5.33333333 L3.82905982,1.33333333 L4.17094018,1.33333333 L5.33333333,5.33333333 L2.66666667,5.33333333 L2.66666667,5.33333333 Z" id="形状"></path>
            <path d="M11.3187348,6.86458334 L9.76155718,1.61458333 C9.72262773,1.44583333 9.56690998,1.33333333 9.3917275,1.33333333 L8.61313868,1.33333333 C8.4379562,1.33333333 8.28223844,1.44583333 8.243309,1.61458333 L6.68613138,6.86458334 C6.66666667,6.88333333 6.66666667,6.92083334 6.66666667,6.95833333 C6.66666667,7.16458333 6.84184915,7.33333333 7.05596107,7.33333333 C7.23114356,7.33333333 7.38686132,7.22083333 7.42579075,7.05208333 L8.00973236,5.08333333 L9.9756691,5.08333333 L10.5596107,7.05208333 C10.5985402,7.20208334 10.7542579,7.33333333 10.9294404,7.33333333 C11.1435523,7.33333333 11.3187348,7.16458333 11.3187348,6.95833333 C11.3381995,6.92083333 11.3381995,6.88333333 11.3187348,6.86458334 L11.3187348,6.86458334 Z M8.243309,4.33333334 L8.90510949,2.08333334 L9.09975669,2.08333334 L9.76155718,4.33333334 L8.243309,4.33333334 L8.243309,4.33333334 Z" id="形状备份"></path>
        </g>
    </g>
</svg>