<?xml version="1.0" encoding="UTF-8"?>
<svg width="17px" height="16px" viewBox="0 0 17 16" version="1.1" xmlns="http://www.w3.org/2000/svg" xmlns:xlink="http://www.w3.org/1999/xlink">
    <title>颜色</title>
    <g id="2020/12/16日插件后台设置导航" stroke="none" stroke-width="1" fill="none" fill-rule="evenodd">
        <g id="2020/12/16插件后台设置页" transform="translate(-56.000000, -214.000000)" stroke="#222226" stroke-width="0.933333333">
            <g id="ic_公共图标_饼状图备份-9" transform="translate(56.000000, 214.000000)">
                <g id="编组" transform="translate(2.000000, 1.000000)">
                    <path d="M6.125,0.466666667 C6.47938271,0.466666667 6.80021605,0.610308643 7.0324537,0.842546297 C7.26469136,1.07478395 7.40833333,1.39561729 7.40833333,1.75 L7.40833333,1.75 L7.40833333,6.59166667 L10.2628549,6.59166667 C10.6295806,6.59166667 10.9633927,6.73264528 11.2129827,6.96342437 C11.4606821,7.19245526 11.6256627,7.50983087 11.6572875,7.86563465 L11.6572875,7.86563465 L11.6616725,9.59846488 L0.466666667,9.59846488 L0.466666667,7.99166667 C0.466666667,7.62494088 0.607645281,7.29112886 0.838424368,7.04153878 C1.06743603,6.7938602 1.38477757,6.62888657 1.74054503,6.59724201 L1.74054503,6.59724201 L4.84166667,6.59068028 L4.84166667,1.75 C4.84166667,1.39561729 4.98530864,1.07478395 5.2175463,0.842546297 C5.44978395,0.610308643 5.77061729,0.466666667 6.125,0.466666667 Z" id="形状结合"></path>
                    <rect id="矩形备份-7" transform="translate(3.264028, 12.133351) rotate(-270.000000) translate(-3.264028, -12.133351) " x="2.33069476" y="12.1333507" width="1.86666667" height="1" rx="0.5"></rect>
                    <rect id="矩形备份-8" transform="translate(6.064028, 12.133351) rotate(-270.000000) translate(-6.064028, -12.133351) " x="5.13069476" y="12.1333507" width="1.86666667" height="1" rx="0.5"></rect>
                    <rect id="矩形备份-10" transform="translate(8.864028, 12.133351) rotate(-270.000000) translate(-8.864028, -12.133351) " x="7.93069476" y="12.1333507" width="1.86666667" height="1" rx="0.5"></rect>
                    <path d="M10.9640281,9.80001733 L10.9640281,12.1333507 C10.9640281,12.51995 10.8073278,12.86995 10.5539776,13.1233002 C10.3006274,13.3766503 9.95062742,13.5333507 9.56402809,13.5333507 L9.56402809,13.5333507 L2.79736142,13.5333507 C2.4107621,13.5333507 2.0607621,13.3766503 1.80741193,13.1233002 C1.55406176,12.86995 1.39736142,12.51995 1.39736142,12.1333507 L1.39736142,12.1333507 L1.39736142,9.80001733 L10.9640281,9.80001733 Z" id="矩形备份-11"></path>
                </g>
            </g>
        </g>
    </g>
</svg>