<?xml version="1.0" encoding="UTF-8"?>
<svg width="16px" height="16px" viewBox="0 0 16 16" version="1.1" xmlns="http://www.w3.org/2000/svg" xmlns:xlink="http://www.w3.org/1999/xlink">
    <title>7.Ic-json@3x</title>
    <g id="7.Ic-json" stroke="none" stroke-width="1" fill="none" fill-rule="evenodd">
        <path d="M14.5,13 C14.5,14.1045695 13.6045695,15 12.5,15 L3.5,15 C2.3954305,15 1.5,14.1045695 1.5,13 L1.5,3 C1.5,1.8954305 2.3954305,1 3.5,1 L9.97560746,1 C10.2153794,1 10.4471698,1.08615123 10.6287363,1.24275318 L14.1531288,4.28255774 C14.3733727,4.47251911 14.5,4.7489563 14.5,5.03980456 L14.5,7.68502296 L14.5,7.68502296" id="路径" stroke="#555666" transform="translate(8.000000, 8.000000) scale(1, -1) translate(-8.000000, -8.000000) "></path>
        <path d="M9.99954345,10.4136715 L9.99954345,13.5149203 C9.99954345,14.067205 10.4472587,14.5149203 10.9995434,14.5149203 L14.0088639,14.5149203 L14.0088639,14.5149203" id="路径-13" stroke="#555666" stroke-linejoin="round" transform="translate(12.004204, 12.464296) scale(1, -1) translate(-12.004204, -12.464296) "></path>
        <path d="M5.68038126,2.68637929 C5.35698088,2.68637929 5.27035578,2.72006683 5.27035578,3.07234224 C5.27035578,3.41884264 5.35698088,3.4650427 5.67941876,3.4650427 C6.00281914,3.4650427 6.08944424,3.41884264 6.08944424,3.07234224 C6.08944424,2.72006683 6.00281914,2.68541679 5.67941876,2.68541679 L5.68038126,2.68637929 Z M5.31655584,6.99742181 C5.31655584,7.5056224 5.24725576,7.66154758 4.84878029,7.66154758 L4.8487804,7.66154758 C4.74243546,7.66309847 4.63615789,7.65536922 4.5311563,7.6384477 L4.5311563,8.18611084 L4.5311563,8.1861108 C4.65342417,8.20527585 4.77699412,8.21492974 4.90075522,8.21498583 C5.63321857,8.21498583 6.03746905,8.02441061 6.03746905,7.04362197 L6.03746905,3.94436836 L5.31559321,3.94436836 L5.31655584,6.99742181 Z M7.29064563,6.52964626 L7.29064576,6.52964626 C6.97607182,6.52725425 6.66340032,6.4805966 6.36183215,6.3910464 L6.36183215,6.99742211 L6.36183215,6.9974221 C6.67818972,7.06679723 7.00144723,7.09973657 7.32529577,7.09559722 C8.11069668,7.09559722 8.56114721,6.83572191 8.56114721,6.1369461 C8.56114721,5.55463292 8.35324696,5.35250769 7.66024616,5.18406999 C7.17610809,5.06375735 7.07793298,5.02910731 7.07793298,4.77981952 C7.07793298,4.52090672 7.22712065,4.44005662 7.62655862,4.44005662 L7.62655872,4.44005662 C7.8886177,4.4382712 8.14935925,4.47723654 8.39944712,4.55555676 L8.43409716,3.9905686 L8.43409734,3.99056865 C8.16400749,3.91271855 7.88345797,3.87732513 7.60249637,3.88565603 C6.75453288,3.88565603 6.40225747,4.22734393 6.40225747,4.78655708 C6.40225747,5.30630768 6.57550767,5.52479544 7.24444595,5.67590811 C7.76997156,5.79718325 7.87969669,5.86648333 7.87969669,6.16004618 C7.87969669,6.45360902 7.68912147,6.52964661 7.29064601,6.52964661 L7.29064563,6.52964626 Z M8.7180348,5.50265757 C8.7180348,6.76642154 9.26666043,7.11869695 10.212799,7.11869695 C11.1656751,7.11869695 11.7143008,6.76642154 11.7143008,5.50169507 C11.7143008,4.23696859 11.1656751,3.88565569 10.212799,3.88565569 C9.26569793,3.88565569 8.7180348,4.2379311 8.7180348,5.50265757 L8.7180348,5.50265757 Z M10.9683624,5.50265757 C10.9683624,6.31019601 10.7893372,6.5594838 10.212799,6.5594838 C9.65262338,6.5594838 9.46204816,6.30923351 9.46204816,5.50265757 C9.46204816,4.69415663 9.64107337,4.44005633 10.212799,4.44005633 C10.7845247,4.44005633 10.9683624,4.69415663 10.9683624,5.50265757 Z M13.7297781,3.88565569 L13.7297781,3.88565568 C13.3442573,3.84176338 12.9661839,4.01523225 12.748027,4.33610621 L12.748027,3.94436825 L12.0261511,3.94436825 L12.0261511,7.06094688 L12.748027,7.06094688 L12.748027,4.98194446 L12.748027,4.98194444 C12.8408745,4.64820018 13.1676128,4.43573859 13.5103279,4.48625636 C13.9492284,4.48625636 14.046441,4.6883816 14.046441,5.12728211 L14.046441,7.06094688 L14.7683168,7.06094688 L14.7683168,4.92515687 C14.7683168,4.2610311 14.515179,3.88565566 13.7297781,3.88565566 L13.7297781,3.88565569 Z" id="形状" fill="#555666" fill-rule="nonzero"></path>
    </g>
</svg>