<?xml version="1.0" encoding="UTF-8"?>
<svg width="16px" height="16px" viewBox="0 0 16 16" version="1.1" xmlns="http://www.w3.org/2000/svg" xmlns:xlink="http://www.w3.org/1999/xlink">
    <title>分割布局</title>
    <g id="分割布局" stroke="none" stroke-width="1" fill="none" fill-rule="evenodd">
        <g id="水平线" fill-rule="nonzero">
            <rect id="矩形" fill="#000000" opacity="0" x="1.33333333" y="1.33333333" width="13.3333333" height="13.3333333"></rect>
            <path d="M12.4444444,11.3333333 L3.55555556,11.3333333 C3.25,11.3333333 3,11.5833333 3,11.8888889 C3,12.1944445 3.25,12.4444444 3.55555556,12.4444444 L12.4444444,12.4444444 C12.75,12.4444444 13,12.1944444 13,11.8888889 C13,11.5833333 12.75,11.3333333 12.4444444,11.3333333 Z M3.55555556,4.66666667 L12.4444444,4.66666667 C12.75,4.66666667 13,4.41666667 13,4.11111111 C13,3.80555555 12.75,3.55555556 12.4444444,3.55555556 L3.55555556,3.55555556 C3.25,3.55555556 3,3.80555556 3,4.11111111 C3,4.41666665 3.25,4.66666667 3.55555556,4.66666667 Z M3.97222223,7.16666667 C3.75,7.16666667 3.55555556,7.36111111 3.55555556,7.58333333 L3.55555556,8.13888889 C3.55555556,8.36111112 3.75,8.55555556 3.97222223,8.55555556 L4.52777777,8.55555556 C4.75,8.55555556 4.94444444,8.36111112 4.94444444,8.13888889 L4.94444444,7.58333333 C4.94444444,7.36111111 4.75,7.16666667 4.52777777,7.16666667 L3.97222223,7.16666667 L3.97222223,7.16666667 Z M6.47222223,7.16666667 C6.25,7.16666667 6.05555556,7.36111111 6.05555556,7.58333333 L6.05555556,8.13888889 C6.05555556,8.36111112 6.25,8.55555556 6.47222223,8.55555556 L7.02777777,8.55555556 C7.25,8.55555556 7.44444444,8.36111112 7.44444444,8.13888889 L7.44444444,7.58333333 C7.44444444,7.36111111 7.25,7.16666667 7.02777777,7.16666667 L6.47222223,7.16666667 L6.47222223,7.16666667 Z M8.97222223,7.16666667 C8.75,7.16666667 8.55555556,7.36111111 8.55555556,7.58333333 L8.55555556,8.13888889 C8.55555556,8.36111112 8.75,8.55555556 8.97222223,8.55555556 L9.52777777,8.55555556 C9.75,8.55555556 9.94444444,8.36111112 9.94444444,8.13888889 L9.94444444,7.58333333 C9.94444444,7.36111111 9.75,7.16666667 9.52777777,7.16666667 L8.97222223,7.16666667 L8.97222223,7.16666667 Z M11.4722222,7.16666667 C11.25,7.16666667 11.0555556,7.36111111 11.0555556,7.58333333 L11.0555556,8.13888889 C11.0555556,8.36111112 11.25,8.55555556 11.4722222,8.55555556 L12.0277778,8.55555556 C12.25,8.55555556 12.4444444,8.36111112 12.4444444,8.13888889 L12.4444444,7.58333333 C12.4444444,7.36111111 12.25,7.16666667 12.0277778,7.16666667 L11.4722222,7.16666667 L11.4722222,7.16666667 Z" id="形状" fill="#222226"></path>
        </g>
    </g>
</svg>