<?xml version="1.0" encoding="UTF-8"?>
<svg width="16px" height="16px" viewBox="0 0 16 16" version="1.1" xmlns="http://www.w3.org/2000/svg" xmlns:xlink="http://www.w3.org/1999/xlink">
    <title>7.Icon调色盘备份@2x</title>
    <g id="7.Icon调色盘备份" stroke="none" stroke-width="1" fill="none" fill-rule="evenodd">
        <g id="色彩分析" transform="translate(1.000000, 2.500000)" fill="#555666" fill-rule="nonzero">
            <path d="M11.4515766,1.42432869 L11.721077,1.59180389 L11.7210771,1.59180374 C11.4709532,1.82116475 11.2077482,2.0358416 10.9327887,2.23475449 C8.28783562,0.649515141 5.72950765,0.704377705 3.1942797,2.38201716 C1.42135263,3.7102687 0.776476883,5.42255819 1.31355251,6.59777206 C1.57920282,7.18008524 1.89682819,7.37066046 2.50416639,7.400498 L2.70532913,7.404348 L3.31651734,7.39376049 C3.64184272,7.39376049 3.882468,7.47172308 4.04320568,7.70368585 C4.14715581,7.85383602 4.17025583,7.95201114 4.17410584,8.16279888 L4.17410584,8.27829902 C4.17218083,8.73837455 4.26746845,8.99439985 4.77278153,9.43811287 C5.39166975,9.981926 6.99134661,10.1773137 8.44376081,9.73456321 C10.2176504,9.19460008 11.5834395,7.85479853 12.2321652,5.6805085 L13.2408664,5.64874596 C12.5411281,8.31294906 10.8885136,9.99636352 8.72384863,10.6556768 C6.9778716,11.1869774 5.03554434,10.9502021 4.13753079,10.1619137 C3.4551175,9.56227551 3.23855475,9.06754994 3.21352972,8.42459919 L3.21256722,8.35626161 L2.70436663,8.36684912 L2.64084155,8.36684912 C1.59652784,8.35722411 0.898714525,8.0087987 0.437676489,6.99817253 C-0.308261879,5.36480813 0.511789075,3.1885931 2.64084155,1.59565374 C5.5177574,-0.309135975 8.48322335,-0.36496104 11.4515768,1.42432854 L11.4515766,1.42432869 Z M13.7134543,2.12406701 L13.7134543,2.12406699 C13.9013255,2.31199534 13.9013255,2.61662694 13.7134543,2.80455529 L9.04243635,7.47653572 L7.57365964,8.2349866 L8.36098556,6.79508493 L13.032966,2.12406699 L13.032966,2.12406702 C13.2208943,1.93619583 13.5255259,1.93619583 13.7134543,2.12406696 L13.7134543,2.12406701 Z M3.03354184,4.98750784 L3.03354181,4.98750784 C3.43222331,4.98750784 3.75541765,5.31070218 3.75541765,5.70938368 C3.75541765,6.10806518 3.43222331,6.43125952 3.03354181,6.43125952 L3.03354178,6.43125952 C2.63486028,6.43125952 2.31166594,6.10806518 2.31166594,5.70938368 C2.31166594,5.31070218 2.63486028,4.98750784 3.03354178,4.98750784 L3.03354184,4.98750784 Z M4.25591827,3.04710558 L4.25591824,3.04710558 C4.65459973,3.04710558 4.97779408,3.37029992 4.97779408,3.76898142 C4.97779408,4.16766292 4.65459973,4.49085726 4.25591824,4.49085726 L4.2559182,4.49085726 C3.8572367,4.49085726 3.53404236,4.16766292 3.53404236,3.76898142 C3.53404236,3.37029992 3.8572367,3.04710558 4.2559182,3.04710558 L4.25591827,3.04710558 Z M9.30327414,2.92101794 L9.30327411,2.92101794 C9.70195561,2.92101794 10.0251499,3.24421228 10.0251499,3.64289378 C10.0251499,4.04157527 9.70195561,4.36476962 9.30327411,4.36476962 L9.30327408,4.36476962 C8.90459258,4.36476962 8.58139824,4.04157527 8.58139824,3.64289378 C8.58139824,3.24421228 8.90459258,2.92101794 9.30327408,2.92101794 L9.30327414,2.92101794 Z M6.75938368,2.10000448 L6.75938365,2.10000448 C7.15806515,2.10000448 7.48125949,2.42319882 7.48125949,2.82188032 C7.48125949,3.22056182 7.15806515,3.54375616 6.75938365,3.54375616 L6.75938362,3.54375616 C6.36070212,3.54375616 6.03750778,3.22056182 6.03750778,2.82188032 C6.03750778,2.42319882 6.36070212,2.10000448 6.75938362,2.10000448 L6.75938368,2.10000448 Z" id="形状"></path>
        </g>
    </g>
</svg>