<?xml version="1.0" standalone="no"?><!DOCTYPE svg PUBLIC "-//W3C//DTD SVG 1.1//EN" "http://www.w3.org/Graphics/SVG/1.1/DTD/svg11.dtd"><svg t="1603158330051" class="icon" viewBox="0 0 1194 1024" version="1.1" xmlns="http://www.w3.org/2000/svg" p-id="4859" xmlns:xlink="http://www.w3.org/1999/xlink" width="55.96875" height="48"><defs><style type="text/css"></style></defs><path d="M55.466667 465.066667c-8.533333 0-17.066667 4.266667-21.333334 8.533333-4.266667 4.266667-8.533333 17.066667-8.533333 25.6 0 17.066667 12.8 34.133333 34.133333 34.133333h307.2l-128 132.266667c-4.266667 4.266667-8.533333 12.8-8.533333 25.6s4.266667 17.066667 8.533333 25.6c0 4.266667 8.533333 8.533333 17.066667 8.533333s17.066667-4.266667 21.333333-8.533333l179.2-192c4.266667-4.266667 8.533333-12.8 8.533334-25.6 0-8.533333-4.266667-17.066667-8.533334-25.6L281.6 285.866667c-8.533333-4.266667-12.8-8.533333-21.333333-8.533334s-17.066667 4.266667-25.6 8.533334c-4.266667 8.533333-8.533333 17.066667-8.533334 25.6s4.266667 17.066667 8.533334 25.6l128 132.266666H55.466667zM789.333333 145.066667v38.4c0 8.533333-4.266667 17.066667-12.8 17.066666h-29.866666c-29.866667 0-42.666667 17.066667-42.666667 55.466667v162.133333c0 42.666667-12.8 72.533333-42.666667 89.6-8.533333 4.266667-8.533333 17.066667 0 25.6 29.866667 21.333333 42.666667 51.2 42.666667 89.6v162.133334c0 34.133333 12.8 51.2 42.666667 51.2h29.866666c8.533333 0 12.8 8.533333 12.8 17.066666v38.4c0 8.533333-4.266667 17.066667-12.8 17.066667h-46.933333c-34.133333 0-59.733333-12.8-76.8-34.133333-17.066667-21.333333-25.6-51.2-25.6-85.333334v-153.6c0-25.6-4.266667-42.666667-12.8-51.2-8.533333-12.8-25.6-17.066667-46.933333-21.333333-8.533333 0-12.8-8.533333-12.8-12.8V512c0-8.533333 4.266667-12.8 12.8-12.8 21.333333-4.266667 34.133333-8.533333 46.933333-21.333333 8.533333-12.8 12.8-29.866667 12.8-51.2V251.733333c0-38.4 8.533333-68.266667 25.6-89.6 17.066667-25.6 42.666667-34.133333 76.8-34.133333h46.933333c4.266667 0 12.8 8.533333 12.8 17.066667z m230.4-17.066667H981.333333c-8.533333 0-17.066667 8.533333-17.066666 21.333333v25.6c0 12.8 8.533333 21.333333 17.066666 21.333334h25.6c29.866667 0 42.666667 17.066667 42.666667 55.466666v162.133334c0 38.4 12.8 68.266667 38.4 85.333333 8.533333 8.533333 12.8 25.6 0 34.133333-25.6 21.333333-38.4 46.933333-38.4 85.333334v162.133333c0 34.133333-12.8 51.2-42.666667 51.2H981.333333c-8.533333 0-17.066667 8.533333-17.066666 21.333333v25.6c0 12.8 8.533333 21.333333 17.066666 21.333334h38.4c34.133333 0 59.733333-12.8 76.8-34.133334 17.066667-21.333333 25.6-51.2 25.6-85.333333v-153.6c0-25.6 4.266667-42.666667 12.8-51.2 8.533333-8.533333 21.333333-17.066667 42.666667-21.333333 8.533333 0 17.066667-8.533333 17.066667-21.333334v-29.866666c0-8.533333-8.533333-17.066667-17.066667-21.333334-17.066667-4.266667-34.133333-8.533333-42.666667-21.333333-8.533333-12.8-12.8-29.866667-12.8-51.2V251.733333c0-38.4-8.533333-68.266667-25.6-89.6-17.066667-21.333333-42.666667-34.133333-76.8-34.133333z" p-id="4860" fill="#cdcdcd"></path></svg>