<?xml version="1.0" standalone="no"?><!DOCTYPE svg PUBLIC "-//W3C//DTD SVG 1.1//EN" "http://www.w3.org/Graphics/SVG/1.1/DTD/svg11.dtd"><svg t="1608702616885" class="icon" viewBox="0 0 1024 1024" version="1.1" xmlns="http://www.w3.org/2000/svg" p-id="6219" xmlns:xlink="http://www.w3.org/1999/xlink" width="48" height="48"><defs><style type="text/css"></style></defs><path d="M861.566245 1024H155.298816A126.420114 126.420114 0 0 1 29.259045 896.8192V133.588114A132.739657 132.739657 0 0 1 156.088759 0h711.826286A127.7952 127.7952 0 0 1 994.744759 128v768A133.354057 133.354057 0 0 1 861.566245 1024z m69.749028-896a63.8976 63.8976 0 0 0-63.429486-63.985371H156.088759A69.632 69.632 0 0 0 91.86933 133.588114v763.231086a63.8976 63.8976 0 0 0 63.429486 63.985371h706.267429a69.456457 69.456457 0 0 0 68.959085-63.985371V128h0.789943z m-406.674286 576.014629h-266.24a32.007314 32.007314 0 0 1 0-64.014629h266.24a32.007314 32.007314 0 0 1 0 64.014629zM765.66133 512H258.342473a32.007314 32.007314 0 0 1 0-63.985371h507.318857a32.007314 32.007314 0 0 1 0 63.985371z m0-191.985371H258.342473a32.007314 32.007314 0 0 1 0-64.014629h507.318857a32.007314 32.007314 0 0 1 0 64.014629z m0 0" p-id="6220" fill="#cdcdcd"></path></svg>